<?xml version="1.0" encoding="utf-8"?>
<!-- Generator: Adobe Illustrator 16.0.0, SVG Export Plug-In . SVG Version: 6.00 Build 0)  -->
<!DOCTYPE svg PUBLIC "-//W3C//DTD SVG 1.1//EN" "http://www.w3.org/Graphics/SVG/1.1/DTD/svg11.dtd">
<svg version="1.1" id="Layer_1" xmlns="http://www.w3.org/2000/svg" xmlns:xlink="http://www.w3.org/1999/xlink" x="0px" y="0px"
	 width="997px" height="351px" viewBox="0 0 997 351" enable-background="new 0 0 997 351" xml:space="preserve">
<g>
	<path fill="#FF0000" d="M133.895,129.797h-9.408V259.97h9.408V129.797z M173.5,75.635H46.371v5.126h117.722v35.455h9.408
		L173.5,75.635L173.5,75.635z"/>
	<path fill="#FF0000" d="M229.352,213.75v46.22h9.409v-31.471L229.352,213.75z M289.863,189.218
		c-2.791,2.101-5.868,3.907-9.222,5.371l50.146,65.381h9.308v-5.26L289.863,189.218z M229.352,125.924v37.471h4.646
		c8.395,0,17.352-0.844,23.853-4.722c0.25-0.576,0.478-1.177,0.679-1.803c-4.805,1.091-10.065,1.398-15.123,1.398h-4.645v-31.525
		C235.699,126.243,232.51,126.007,229.352,125.924z M262.474,75.635h-71.631v5.126h62.223c36.429,0,64.054,17.358,64.054,56.718
		c0,16.447-5.933,31.462-17.204,41.273c-0.431,0.618-0.875,1.227-1.334,1.821c18.216-8.442,27.946-27.157,27.946-48.222
		C326.527,92.993,298.901,75.635,262.474,75.635z"/>
	<polygon fill="#FF0000" points="404.99,75.635 357.071,75.635 357.071,80.762 395.58,80.762 395.58,259.97 404.99,259.97 	"/>
	<path fill="#FF0000" d="M484.191,212.432h-9.408v47.538h9.408V212.432z M475.281,127.843h-0.499v37.508h8.067
		c9.333,0,18.594,0,25.163-3.496c0.306-0.766,0.575-1.582,0.804-2.449c-5.084,0.818-10.809,0.818-16.561,0.818h-8.066v-32.26
		C481.334,127.85,478.344,127.843,475.281,127.843z M509.616,75.635h-73.345v5.126h63.938c39.605,0,66.985,18.336,66.985,60.63
		c0,22.396-6.214,38.315-17.947,48.494c-0.456,0.661-0.932,1.309-1.418,1.939c18.701-9.037,28.773-27.054,28.773-55.561
		C576.604,93.97,549.223,75.635,509.616,75.635z"/>
	<path fill="#FF0000" d="M610.081,205.208l-4.778,8.99c10.955,8.668,23.595,15.207,37.911,15.207c5.061,0,10.269-1.138,14.468-3.571
		c0.259-0.654,0.479-1.338,0.657-2.049c-1.886,0.331-3.813,0.492-5.717,0.492C636.242,224.277,622.061,215.72,610.081,205.208z
		 M646.85,124.669c-3.03,0.424-6.174,1.393-8.926,2.905c-0.374,1.176-0.578,2.44-0.578,3.795c0,10.757,12.958,14.912,21.271,17.601
		l12.227,3.667c25.667,7.579,45.472,20.537,45.472,50.362c0,18.073-4.275,36.621-18.444,49.09c-0.705,1.004-1.449,1.986-2.237,2.944
		c3.898-2.129,7.598-4.631,11.021-7.533c14.67-12.467,19.069-31.293,19.069-49.628c0-29.826-19.803-42.783-45.475-50.364
		l-12.224-3.667c-8.313-2.688-21.27-6.845-21.27-17.601C646.755,125.703,646.786,125.179,646.85,124.669z M660.447,70.744
		c-14.609,0-27.611,3.829-37.991,10.775c8.45-3.678,18.102-5.647,28.58-5.647c18.58,0,41.317,5.867,57.7,15.157l-14.563,28.378
		c1.702,1.133,3.339,2.356,4.898,3.656l19.07-37.162C701.762,76.611,679.026,70.744,660.447,70.744z"/>
	<path fill="#FF0000" d="M928.797,129.795h-9.409v130.172h9.409V129.795z M968.402,75.633H841.274v5.126h117.72v35.455h9.408V75.633
		L968.402,75.633z"/>
	<path fill="#0000FF" d="M156.524,121.345h-22.629v8.452h22.629V121.345z M36.963,89.214h-7.568v40.583H69v143.755h47.918v-8.454
		H76.568V121.345H36.963V89.214z"/>
	<rect x="124.487" y="121.345" fill="#FF00FF" width="9.408" height="8.452"/>
	<path fill="#0000FF" d="M238.761,208.182v20.317l28.741,45.054h59.653l-6.483-8.453h-45.601L238.761,208.182z M298.581,180.574
		c-0.714,0.332-1.443,0.646-2.185,0.947c-2.662,1.887-5.571,3.515-8.721,4.844l2.188,2.853
		C293.176,186.725,296.085,183.818,298.581,180.574z M238.761,117.537v9.206c11.321,1.85,20.918,7.321,20.918,22.125
		c0,3.045-0.406,5.697-1.15,8.002c0.918-0.209,1.819-0.446,2.7-0.715c3.701-3.445,6.019-8.466,6.019-15.74
		C267.247,122.383,253.009,118.197,238.761,117.537z M181.435,89.214h-7.567v184.338h47.917v-8.454h-40.35V89.214z"/>
	<path fill="#FF00FF" d="M229.841,194.199h-0.489v19.55l9.409,14.75v-20.317L229.841,194.199z M287.675,186.365
		c-3.36,1.418-6.994,2.496-10.896,3.189l3.861,5.033c3.354-1.464,6.431-3.271,9.222-5.371L287.675,186.365z M299.915,178.753
		c-1.12,0.976-2.292,1.899-3.519,2.769c0.741-0.299,1.471-0.615,2.185-0.947C299.039,179.979,299.485,179.371,299.915,178.753z
		 M261.229,156.154c-0.881,0.27-1.782,0.506-2.7,0.715c-0.201,0.626-0.429,1.227-0.679,1.803
		C259.069,157.945,260.202,157.11,261.229,156.154z M233.997,117.434h-4.646v8.49c3.158,0.083,6.348,0.319,9.409,0.819v-9.206
		C237.166,117.463,235.572,117.434,233.997,117.434z"/>
	<polygon fill="#0000FF" points="347.662,89.214 340.096,89.214 340.096,254.71 344.13,259.97 340.096,259.97 340.096,273.553 
		388.013,273.553 388.013,265.1 347.662,265.1 	"/>
	<polygon fill="#FF00FF" points="340.096,254.71 340.096,259.97 344.13,259.97 	"/>
	<path fill="#0000FF" d="M547.829,191.826c-0.849,0.41-1.713,0.801-2.597,1.174c-10.784,7.462-25.356,10.98-43.313,10.98h-17.729
		v8.451h10.163C518.78,212.432,536.947,205.922,547.829,191.826z M484.191,119.39v8.575c14.479,0.583,25.563,3.949,25.563,23.348
		c0,3.108-0.326,5.786-0.937,8.094c1.175-0.189,2.313-0.421,3.412-0.708c3.185-3.332,5.091-8.333,5.091-15.84
		C517.32,120.193,502.189,119.415,484.191,119.39z M426.864,89.214h-7.567v184.338h47.918v-8.454h-40.351V89.214z"/>
	<path fill="#FF00FF" d="M484.191,203.98h-9.408v8.451h9.408V203.98z M549.247,189.886c-1.271,1.104-2.611,2.144-4.015,3.113
		c0.884-0.373,1.748-0.765,2.597-1.174C548.316,191.195,548.791,190.547,549.247,189.886z M512.229,158.699
		c-1.099,0.287-2.237,0.519-3.412,0.708c-0.229,0.867-0.498,1.683-0.804,2.449C509.585,161.02,511.002,159.983,512.229,158.699z
		 M482.851,119.39h-8.067v8.454h0.499c3.063,0,6.053,0.007,8.909,0.122v-8.575C483.745,119.39,483.299,119.39,482.851,119.39z"/>
	<path fill="#0000FF" d="M593.106,218.789l-20.536,38.627c18.826,13.201,41.563,21.023,64.786,21.023
		c18.582,0,37.896-5.131,52.32-17.357c2.212-1.88,4.188-3.903,5.954-6.048c-1.598,0.871-3.229,1.681-4.887,2.429
		c-13.456,8.76-29.905,12.523-45.82,12.523c-23.225,0-45.961-7.821-64.785-21.023l15.078-28.361
		C594.506,220.004,593.803,219.4,593.106,218.789z M657.881,115.966c-2.246,0-4.685,0.334-7.067,1.003
		c-2.11,2.051-3.587,4.618-3.964,7.699c1.183-0.166,2.348-0.249,3.466-0.249c11.734,0,22.979,4.888,31.78,12.225l5.271-10.272
		C678.946,120.059,668.617,115.966,657.881,115.966z M598.861,100.274c-11.893,10.821-18.956,26.644-18.956,45.904
		c0,35.693,19.801,43.516,49.875,52.074c10.267,2.934,29.094,7.578,29.094,21.025c0,1.615-0.188,3.117-0.534,4.508
		c1.023-0.18,2.037-0.41,3.026-0.691c3.099-2.957,5.071-7.009,5.071-12.269c0-13.447-18.825-18.093-29.092-21.025
		c-30.07-8.559-49.874-16.381-49.874-52.075C587.472,123,591.602,110.283,598.861,100.274z"/>
	<path fill="#FF00FF" d="M697.868,252.09c-0.206,0.182-0.415,0.362-0.625,0.541c-2.07,1.755-4.242,3.364-6.499,4.832
		c1.658-0.748,3.289-1.559,4.887-2.429C696.419,254.076,697.163,253.094,697.868,252.09z M661.365,223.094
		c-0.989,0.281-2.003,0.512-3.026,0.691c-0.179,0.711-0.398,1.395-0.657,2.049C659.026,225.055,660.267,224.145,661.365,223.094z
		 M650.813,116.97c-5.727,1.606-11.148,5.141-12.89,10.604c2.752-1.512,5.896-2.481,8.926-2.905
		C647.227,121.588,648.702,119.021,650.813,116.97z"/>
	<path fill="#0000FF" d="M951.427,121.343h-22.63v8.452h22.63V121.343z M831.865,89.212h-7.568v40.583h39.604V273.55h47.919v-8.454
		H871.47V121.343h-39.604V89.212z"/>
	<rect x="919.388" y="121.343" fill="#FF00FF" width="9.409" height="8.452"/>
	<path fill="#00FF00" d="M124.487,259.97h-7.568v5.13h7.568V259.97z M164.092,116.216h-7.568v5.129h7.568V116.216z M46.371,80.762
		h-9.408v8.453h9.408V80.762z"/>
	<path fill="#FFFF00" d="M124.487,129.797h-7.568V259.97h7.568V129.797z M164.092,80.762H46.371v8.453h110.152v27.002h7.568V80.762z
		"/>
	<path fill="#00FFFF" d="M156.524,116.216h-22.629v5.129h22.629V116.216z M46.371,89.214h-9.408v32.131h39.604v143.753h40.351
		v-5.129H85.977V116.216H46.371V89.214z"/>
	<polygon fill="#FFFFFF" points="156.524,89.214 46.371,89.214 46.371,116.216 85.977,116.216 85.977,259.97 116.918,259.97 
		116.918,129.797 124.487,129.797 124.487,121.345 133.895,121.345 133.895,116.216 156.524,116.216 	"/>
	<path fill="#00FF00" d="M229.352,259.97h-7.567v5.13h7.567V259.97z M330.788,259.97h-14.051l3.935,5.13h14.052L330.788,259.97z
		 M190.843,80.762h-9.408v8.453h9.408V80.762z"/>
	<path fill="#FFFF00" d="M222.273,202.652h-0.489v57.316h7.567v-46.22L222.273,202.652z M280.642,194.589
		c-3.509,1.532-7.32,2.688-11.429,3.419l47.523,61.962h14.051L280.642,194.589z M226.429,125.887h-4.646v45.962h4.646
		c12.625,0,26.522-1.909,31.42-13.176c-6.5,3.878-15.458,4.722-23.853,4.722h-4.646v-37.471
		C228.373,125.898,227.397,125.887,226.429,125.887z M253.065,80.762h-62.223v8.453h54.656c36.427,0,64.054,17.359,64.054,56.718
		c0,12.255-3.295,23.716-9.638,32.82c11.271-9.811,17.204-24.826,17.204-41.273C317.118,98.12,289.493,80.762,253.065,80.762z"/>
	<path fill="#00FFFF" d="M239.249,189.07h-0.488v19.111l36.31,56.916h45.601l-3.935-5.129h-32.258L239.249,189.07z M296.396,181.521
		c-3.167,1.278-6.571,2.26-10.208,2.905l1.487,1.938C290.824,185.036,293.734,183.408,296.396,181.521z M243.406,112.306h-4.645
		v5.231c14.249,0.66,28.486,4.846,28.486,22.877c0,7.274-2.317,12.295-6.019,15.74c8.768-2.682,15.426-8.538,15.426-20.867
		C276.655,115.238,259.052,112.306,243.406,112.306z M190.843,89.214h-9.408v175.884h40.35v-5.129h-30.941V89.214z"/>
	<path fill="#FFFFFF" d="M238.761,117.537v-5.231h4.645c15.646,0,33.249,2.932,33.249,22.981c0,12.329-6.658,18.186-15.426,20.867
		c-1.026,0.956-2.16,1.791-3.379,2.518c-4.897,11.267-18.796,13.176-31.42,13.176h-4.646v-45.962h4.646
		c0.968,0,1.944,0.011,2.923,0.037v-8.49h4.646C235.572,117.434,237.166,117.463,238.761,117.537z M245.499,89.214h-54.656V259.97
		h30.941v-57.315h0.489l7.079,11.096V194.2h0.489l8.919,13.981v-19.109h0.488l45.229,70.897h32.258l-47.523-61.962
		c4.107-0.729,7.92-1.887,11.429-3.419l-3.861-5.034c3.901-0.691,7.535-1.771,10.896-3.188l-1.487-1.938
		c3.637-0.646,7.041-1.627,10.208-2.906c1.227-0.869,2.398-1.791,3.52-2.768c6.342-9.104,9.637-20.565,9.637-32.82
		C309.552,106.574,281.926,89.214,245.499,89.214z"/>
	<path fill="#00FF00" d="M395.58,259.97h-7.567v5.13h7.567V259.97z M357.071,80.762h-9.408v8.453h9.408V80.762z"/>
	<polygon fill="#FFFF00" points="395.58,80.762 357.071,80.762 357.071,89.214 388.013,89.214 388.013,259.97 395.58,259.97 	"/>
	<polygon fill="#00FFFF" points="357.071,89.214 347.662,89.214 347.662,265.1 388.013,265.1 388.013,259.97 357.071,259.97 	"/>
	<rect x="357.071" y="89.214" fill="#FFFFFF" width="30.942" height="170.755"/>
	<path fill="#00FF00" d="M474.782,259.97h-7.568v5.13h7.568V259.97z M436.272,80.762h-9.408v8.453h9.408V80.762z"/>
	<path fill="#FFFF00" d="M474.782,212.432h-7.568v47.538h7.568V212.432z M474.782,127.843h-7.568v45.962h8.066
		c14.06,0,27.957,0.001,32.732-11.949c-6.569,3.496-15.83,3.496-25.163,3.496h-8.067V127.843z M500.209,80.762h-63.938v8.453h56.367
		c39.606,0,66.988,18.337,66.988,60.631c0,16.95-3.562,30.19-10.381,40.041c11.733-10.179,17.947-26.098,17.947-48.494
		C567.195,99.098,539.815,80.762,500.209,80.762z"/>
	<path fill="#00FFFF" d="M545.233,193c-9.373,3.958-20.729,5.852-33.906,5.852h-27.136v5.129h17.729
		C519.875,203.98,534.448,200.461,545.233,193z M492.257,114.262h-8.066v5.128c17.999,0.024,33.129,0.803,33.129,23.469
		c0,7.507-1.906,12.508-5.091,15.84c8.5-2.215,14.502-7.648,14.502-20.968C526.731,114.505,510.839,114.262,492.257,114.262z
		 M436.272,89.214h-9.408v175.884h40.351v-5.129h-30.942V89.214L436.272,89.214z"/>
	<path fill="#FFFFFF" d="M484.191,119.39v-5.128h8.066c18.582,0,34.475,0.243,34.475,23.469c0,13.32-6.002,18.752-14.502,20.968
		c-1.228,1.284-2.645,2.321-4.216,3.157c-4.775,11.951-18.673,11.949-32.732,11.949h-8.066v-45.962h7.568v-8.454h8.067
		C483.299,119.39,483.745,119.39,484.191,119.39z M492.64,89.214h-56.367V259.97h30.942v-47.538h7.568v-8.451h9.408v-5.129h27.136
		c13.179,0,24.533-1.895,33.906-5.852c1.402-0.97,2.742-2.009,4.015-3.113c6.819-9.85,10.381-23.09,10.381-40.041
		C559.628,107.551,532.246,89.214,492.64,89.214z"/>
	<path fill="#00FF00" d="M600.675,210.334l-5.458,10.266c1.531,1.284,3.098,2.532,4.697,3.731l5.389-10.133
		C603.726,212.95,602.182,211.658,600.675,210.334z M691.73,117.871l-4.363,8.502c0.783,0.587,1.55,1.194,2.3,1.818l4.508-8.784
		C693.372,118.875,692.559,118.362,691.73,117.871z M622.455,81.519c-9.598,4.177-17.646,10.558-23.595,18.755
		c3.56-3.237,7.554-6.03,11.916-8.33C614.15,87.949,618.069,84.455,622.455,81.519z"/>
	<path fill="#FFFF00" d="M605.303,214.198l-5.389,10.133c10.443,7.817,22.354,13.526,35.73,13.526
		c9.128,0,18.737-3.702,22.036-12.023c-4.199,2.434-9.407,3.571-14.468,3.571C628.897,229.405,616.258,222.866,605.303,214.198z
		 M637.924,127.574c-4.627,2.544-8.145,6.626-8.145,12.248c0,10.756,12.956,14.913,21.269,17.601l12.225,3.668
		c25.668,7.58,45.474,20.537,45.474,50.364c0,14.336-2.689,28.973-10.877,40.635c14.169-12.469,18.444-31.017,18.444-49.09
		c0-29.826-19.805-42.783-45.472-50.362l-12.227-3.667c-8.313-2.688-21.271-6.844-21.271-17.601
		C637.346,130.015,637.55,128.75,637.924,127.574z M651.035,75.872c-10.479,0-20.13,1.969-28.58,5.647
		c-4.387,2.936-8.306,6.43-11.679,10.426c9.376-4.942,20.47-7.62,32.69-7.62c18.582,0,41.317,5.867,57.698,15.158l-9.437,18.388
		c0.828,0.491,1.643,1.003,2.443,1.536l14.563-28.378C692.354,81.739,669.615,75.872,651.035,75.872z"/>
	<path fill="#00FFFF" d="M595.217,220.602l-15.078,28.361c18.824,13.202,41.562,21.023,64.785,21.023
		c15.915,0,32.364-3.764,45.82-12.523c-11.355,5.124-24.047,7.396-36.412,7.396c-23.224,0-45.963-7.822-64.786-21.023l10.368-19.504
		C598.314,223.133,596.748,221.885,595.217,220.602z M667.289,110.839c-5.553,0-12.272,2.043-16.477,6.131
		c2.384-0.669,4.821-1.003,7.067-1.003c10.736,0,21.064,4.092,29.485,10.407l4.363-8.502
		C684.378,113.512,675.969,110.839,667.289,110.839z M610.777,91.945c-4.362,2.3-8.356,5.092-11.916,8.33
		c-7.26,10.008-11.39,22.725-11.39,37.451c0,35.694,19.804,43.516,49.874,52.075c10.267,2.932,29.092,7.578,29.092,21.025
		c0,5.26-1.974,9.313-5.071,12.269c7.947-2.258,14.481-7.825,14.481-17.396c0-13.447-18.825-18.094-29.093-21.026
		c-30.072-8.557-49.874-16.38-49.874-52.074C596.881,116.253,601.969,102.383,610.777,91.945z"/>
	<path fill="#FFFFFF" d="M643.468,84.325c-12.222,0-23.314,2.678-32.69,7.62c-8.809,10.438-13.896,24.309-13.896,40.652
		c0,35.694,19.802,43.517,49.874,52.074c10.268,2.933,29.093,7.579,29.093,21.026c0,9.57-6.534,15.139-14.481,17.396
		c-1.1,1.05-2.34,1.962-3.685,2.741c-3.299,8.321-12.908,12.023-22.036,12.023c-13.377,0-25.287-5.707-35.729-13.526l-10.369,19.504
		c18.823,13.201,41.563,21.022,64.787,21.022c12.364,0,25.056-2.271,36.411-7.396c2.257-1.468,4.429-3.077,6.499-4.832
		c0.21-0.179,0.419-0.358,0.625-0.541c8.188-11.662,10.878-26.299,10.878-40.635c0-29.827-19.807-42.784-45.475-50.364
		l-12.225-3.668c-8.313-2.688-21.269-6.844-21.269-17.601c0-5.622,3.518-9.704,8.145-12.248c1.741-5.463,7.163-8.999,12.89-10.604
		c4.203-4.087,10.924-6.131,16.478-6.131c8.679,0,17.088,2.673,24.439,7.032l9.438-18.388
		C684.785,90.192,662.05,84.325,643.468,84.325z"/>
	<path fill="#00FF00" d="M919.388,259.968h-7.566v5.13h7.566V259.968z M958.993,116.214h-7.566v5.129h7.566V116.214z M841.274,80.76
		h-9.408v8.453h9.408V80.76z"/>
	<path fill="#FFFF00" d="M919.388,129.795h-7.566v130.172h7.566V129.795z M958.993,80.76h-117.72v8.453h110.152v27.002h7.566
		L958.993,80.76L958.993,80.76z"/>
	<path fill="#00FFFF" d="M951.427,116.214h-22.63v5.129h22.63V116.214z M841.274,89.212h-9.408v32.131h39.604v143.753h40.351v-5.129
		h-30.94V116.214h-39.605L841.274,89.212L841.274,89.212z"/>
	<polygon fill="#FFFFFF" points="951.427,89.212 841.274,89.212 841.274,116.214 880.88,116.214 880.88,259.968 911.821,259.968 
		911.821,129.795 919.388,129.795 919.388,121.343 928.797,121.343 928.797,116.214 951.427,116.214 	"/>
	<path fill="#0000FF" d="M786.813,20.613c3.258,92.049-107.161,149.604-41.85,322.053c0.965-6.863,2.27-13.898,3.845-21.08
		c-50.443-149.446,34.571-209.482,45.598-288.208C792.2,29.002,789.683,24.75,786.813,20.613"/>
	<path fill="#00FF00" d="M752.527,306.156c-1.356,5.207-2.605,10.357-3.72,15.43c1.492,4.42,3.1,8.909,4.833,13.487
		c0.756-5.378,1.721-10.864,2.861-16.441C755.07,314.402,753.747,310.245,752.527,306.156 M795.49,13.02
		c0.247,6.961-0.157,13.726-1.085,20.357c1.805,3.585,3.401,7.261,4.79,10.995c1.604-6.395,2.785-12.875,3.422-19.499
		C800.527,20.82,798.158,16.867,795.49,13.02"/>
	<path fill="#00FFFF" d="M794.405,33.377c-11.025,78.727-96.041,138.762-45.598,288.208c1.113-5.071,2.362-10.223,3.72-15.43
		c-39.3-131.765,29.091-191.756,46.668-261.784C797.807,40.638,796.21,36.963,794.405,33.377"/>
	<path fill="#FD0000" d="M803.084,9.766c0.182,5.135,0.009,10.161-0.468,15.107c41.525,80.519-26.984,200.195-46.114,293.759
		c1.463,4.32,3.037,8.714,4.731,13.187C775.303,231.684,861.918,94.579,803.084,9.766"/>
	<path fill="#FDFF00" d="M802.616,24.873c-0.637,6.624-1.816,13.104-3.422,19.499c27.59,74.182-24.383,176.347-46.668,261.784
		c1.221,4.089,2.543,8.246,3.976,12.476C775.632,225.068,844.143,105.392,802.616,24.873"/>
	<path fill="#FDFFFF" d="M799.195,44.372c-17.577,70.028-85.968,130.02-46.668,261.784
		C774.813,220.719,826.784,118.554,799.195,44.372"/>
</g>
<g>
	<path fill="#808080" d="M121.588,290.461v32.659h-6.159v-32.659h-10.067v-5.229h26.241v5.229H121.588z"/>
	<path fill="#808080" d="M158.078,306.169v16.951h-5.771v-37.888h8.592c2.52,0,4.474,0.164,5.861,0.492
		c1.389,0.327,2.575,0.871,3.559,1.631c1.174,0.914,2.079,2.097,2.718,3.545c0.638,1.449,0.958,3.037,0.958,4.763
		c0,3.036-0.733,5.413-2.2,7.129c-1.467,1.717-3.632,2.748-6.496,3.093l13.043,17.235h-6.961l-12.604-16.951H158.078z
		 M158.466,301.382h1.113c3.261,0,5.426-0.379,6.496-1.139c1.068-0.759,1.604-2.104,1.604-4.037c0-2.087-0.574-3.56-1.721-4.412
		c-1.148-0.854-3.274-1.28-6.379-1.28h-1.113V301.382L158.466,301.382z"/>
	<path fill="#808080" d="M198.086,323.12v-37.888h6.159v37.888H198.086z"/>
	<path fill="#808080" d="M234.86,306.118v17.002h-5.771v-37.888h9.315c2.761,0,4.792,0.151,6.096,0.453
		c1.302,0.303,2.437,0.799,3.402,1.488c1.19,0.879,2.122,2.065,2.795,3.559c0.674,1.492,1.01,3.136,1.01,4.931
		c0,1.794-0.336,3.45-1.01,4.969c-0.673,1.519-1.604,2.708-2.795,3.57c-0.966,0.69-2.101,1.183-3.402,1.476
		c-1.304,0.295-3.334,0.44-6.096,0.44h-1.216H234.86z M235.249,301.071h1.579c3.416,0,5.692-0.371,6.832-1.113
		c1.139-0.741,1.708-2.053,1.708-3.935c0-2.018-0.608-3.44-1.825-4.27c-1.216-0.828-3.455-1.242-6.715-1.242h-1.579V301.071z"/>
	<path fill="#808080" d="M271.117,315.538l4.917-2.277c0.466,1.69,1.319,2.98,2.562,3.868c1.242,0.889,2.829,1.333,4.762,1.333
		c1.829,0,3.282-0.509,4.361-1.526c1.078-1.019,1.617-2.382,1.617-4.088c0-2.228-1.847-4.211-5.538-5.953
		c-0.519-0.259-0.915-0.449-1.19-0.568c-4.175-2.036-6.958-3.878-8.346-5.525c-1.389-1.646-2.083-3.662-2.083-6.043
		c0-3.088,1.048-5.59,3.144-7.505c2.098-1.915,4.845-2.872,8.243-2.872c2.795,0,5.132,0.539,7.014,1.617
		c1.88,1.078,3.183,2.627,3.907,4.645l-4.813,2.484c-0.759-1.189-1.591-2.061-2.498-2.613c-0.905-0.552-1.945-0.828-3.118-0.828
		c-1.656,0-2.972,0.433-3.946,1.295s-1.462,2.019-1.462,3.468c0,2.276,2.14,4.398,6.418,6.366c0.328,0.154,0.586,0.275,0.776,0.361
		c3.744,1.727,6.314,3.412,7.712,5.061c1.398,1.647,2.096,3.705,2.096,6.172c0,3.589-1.13,6.438-3.39,8.553
		s-5.314,3.171-9.161,3.171c-3.227,0-5.871-0.741-7.932-2.228C273.105,320.42,271.755,318.298,271.117,315.538z"/>
	<path fill="#808080" d="M318.475,323.12v-37.888h6.159v37.888H318.475z"/>
	<path fill="#808080" d="M361.719,290.461v32.659h-6.159v-32.659h-10.067v-5.229h26.241v5.229H361.719z"/>
	<path fill="#808080" d="M392.696,320.247c0-0.948,0.328-1.761,0.983-2.433c0.655-0.674,1.458-1.01,2.407-1.01
		c0.948,0,1.751,0.336,2.406,1.01c0.655,0.672,0.983,1.483,0.983,2.433c0,0.933-0.328,1.722-0.983,2.368s-1.458,0.971-2.406,0.971
		c-0.949,0-1.751-0.322-2.407-0.971C393.023,321.969,392.696,321.179,392.696,320.247z"/>
	<path fill="#808080" d="M455.323,304.409c-0.068-0.293-0.181-1.104-0.336-2.433c-0.138-1.104-0.259-2.02-0.361-2.744
		c-0.155,0.863-0.375,1.727-0.66,2.589s-0.644,1.743-1.074,2.641l-9.912,20.187l-9.912-20.601c-0.414-0.846-0.771-1.665-1.074-2.459
		c-0.302-0.793-0.564-1.578-0.789-2.354c-0.018,0.793-0.082,1.627-0.193,2.498c-0.112,0.871-0.28,1.78-0.504,2.729l-4.063,18.658
		h-5.667l8.954-39.491l11.18,23.912c0.173,0.38,0.437,1.009,0.79,1.891c0.354,0.879,0.78,1.967,1.281,3.26
		c0.362-1.086,0.932-2.467,1.708-4.142c0.207-0.448,0.362-0.793,0.466-1.034l10.921-23.887l9.161,39.491h-5.719L455.323,304.409z"/>
	<path fill="#808080" d="M486.145,323.12v-37.888h21.143v5.229h-14.983v9.497h14.983v5.409h-14.983v12.24h14.983v5.513H486.145z"/>
	<path fill="#808080" d="M544.553,284.38h4.398l-18.555,43.657h-4.399L544.553,284.38z"/>
</g>
</svg>
